      <svg rel="tooltip" class="verified" xmlns="http://www.w3.org/2000/svg" xmlns:xlink="http://www.w3.org/1999/xlink" x="0px" y="0px" viewBox="0 0 48 48" title="This profile has been verified as genuine by the Direct.me team.">&gt;
                        <path fill="#2ed6ff" d="M32.35,44.87a.86.86,0,0,1,.51-.21,12.7,12.7,0,0,0,11.8-11.8.86.86,0,0,1,.21-.51,12.7,12.7,0,0,0,0-16.7.86.86,0,0,1-.21-.51,12.7,12.7,0,0,0-11.8-11.8.86.86,0,0,1-.51-.21,12.7,12.7,0,0,0-16.7,0,.86.86,0,0,1-.51.21,12.7,12.7,0,0,0-11.8,11.8.86.86,0,0,1-.21.51,12.7,12.7,0,0,0,0,16.7.86.86,0,0,1,.21.51,12.7,12.7,0,0,0,11.8,11.8.86.86,0,0,1,.51.21,12.7,12.7,0,0,0,16.7,0Z" transform="translate(0)"></path><path fill="#fff" d="M17.63,34.11a2.44,2.44,0,0,0,3.45,0l6.07-6.06,3.26-3.27h0l7.88-7.88a2.07,2.07,0,0,0,0-2.93l-.13-.13a2.25,2.25,0,0,0-3.2,0l-7.41,7.41-3.26,3.26h0l-3.21,3.21a2.44,2.44,0,0,1-3.45,0L13,23.05a2.26,2.26,0,0,0-3.19,0h0a2.25,2.25,0,0,0,0,3.2Z" transform="translate(0)"></path></svg>